<svg width="100" height="100" viewBox="0 0 100 100" xmlns="http://www.w3.org/2000/svg">
  <!-- Soft Dusty Rose color: #d6a6a6. Using slightly more opaque as requested -->
  <g fill="none" stroke="#d6a6a6" stroke-width="2" stroke-opacity="0.05">
    <!-- Heart -->
    <path d="M20,30 C15,20 5,25 5,35 C5,45 20,55 20,55 C20,55 35,45 35,35 C35,25 25,20 20,30 Z" />
    
    <!-- Star -->
    <path d="M70,15 L73,25 L83,25 L75,31 L78,41 L70,35 L62,41 L65,31 L57,25 L67,25 Z" />
    
    <!-- Bear Face -->
    <circle cx="30" cy="80" r="8" />
    <circle cx="24" cy="74" r="3" />
    <circle cx="36" cy="74" r="3" />
    
    <!-- Rattle/Toy -->
    <circle cx="80" cy="75" r="6" />
    <line x1="80" y1="81" x2="80" y2="92" />
    <path d="M76,92 L84,92" />
  </g>
</svg>
